<svg version="1.1" preserveAspectRatio="none" xmlns="http://www.w3.org/2000/svg" width="500" height="500" viewBox="0 0 500 500"><rect width="100%" height="100%" fill="#161616" fill-opacity="1"/><svg viewBox="-37.9097 152.95 361.1146 70" width="333" height="64.55014557705505" x="83.5px" y="217.7249px" xmlns="http://www.w3.org/2000/svg" xmlns:xlink="http://www.w3.org/1999/xlink" preserveAspectRatio="none"><defs></defs><style>.companyName {fill:#F3F0ED;fill-opacity:1;}.icon3-str {stroke:#ED4545;stroke-opacity:1;}</style><g opacity="1" transform="rotate(0 -37.9097 152.95)">
<svg width="361.1146" height="70" x="-37.9097" y="152.95" version="1.1" preserveAspectRatio="none" viewBox="1.12 -28.48 149.39999999999998 28.96">
  <g transform="matrix(1 0 0 1 0 0)" class="companyName"><path id="id-D6z1nYkh6" d="M12.52 0.48Q9.20 0.48 6.10-0.42Q3-1.32 1.12-2.76L1.12-2.76L3.32-7.64Q5.12-6.32 7.60-5.52Q10.08-4.72 12.56-4.72L12.56-4.72Q15.32-4.72 16.64-5.54Q17.96-6.36 17.96-7.72L17.96-7.72Q17.96-8.72 17.18-9.38Q16.40-10.04 15.18-10.44Q13.96-10.84 11.88-11.32L11.88-11.32Q8.68-12.08 6.64-12.84Q4.60-13.60 3.14-15.28Q1.68-16.96 1.68-19.76L1.68-19.76Q1.68-22.20 3-24.18Q4.32-26.16 6.98-27.32Q9.64-28.48 13.48-28.48L13.48-28.48Q16.16-28.48 18.72-27.84Q21.28-27.20 23.20-26L23.20-26L21.20-21.08Q17.32-23.28 13.44-23.28L13.44-23.28Q10.72-23.28 9.42-22.40Q8.12-21.52 8.12-20.08L8.12-20.08Q8.12-18.64 9.62-17.94Q11.12-17.24 14.20-16.56L14.20-16.56Q17.40-15.80 19.44-15.04Q21.48-14.28 22.94-12.64Q24.40-11 24.40-8.20L24.40-8.20Q24.40-5.80 23.06-3.82Q21.72-1.84 19.04-0.68Q16.36 0.48 12.52 0.48L12.52 0.48Z M48.04-28L54.52-28L54.52 0L48.04 0L48.04-11.48L35.32-11.48L35.32 0L28.84 0L28.84-28L35.32-28L35.32-16.96L48.04-16.96L48.04-28Z M82.08 0L79.60-6L66.60-6L64.12 0L57.48 0L69.96-28L76.36-28L88.88 0L82.08 0ZM68.68-10.92L77.56-10.92L73.12-21.64L68.68-10.92Z M91.80 0L91.80-28L98.28-28L98.28 0L91.80 0Z M104.92 0L104.92-28L111.40-28L111.40-5.28L125.44-5.28L125.44 0L104.92 0Z M150.52-28L139.64-9.92L139.64 0L133.16 0L133.16-10L122.32-28L129.20-28L136.68-15.56L144.16-28L150.52-28Z"/></g>
</svg>
</g></svg></svg>